<svg width="86" height="23" viewBox="0 0 86 23" fill="none" xmlns="http://www.w3.org/2000/svg">
<mask id="mask0_1_296" style="mask-type:luminance" maskUnits="userSpaceOnUse" x="0" y="0" width="86" height="23">
<path d="M86 0H0V22.8202H86V0Z" fill="white"/>
</mask>
<g mask="url(#mask0_1_296)">
<path d="M0 22.8202C3.80665 14.2586 24.1293 2.8655 38.6191 0.843062C54.2755 -1.38161 63.301 0.505991 81.7203 10.0114C81.4747 8.66313 81.1677 7.5845 81.0449 6.57329C80.8607 5.42724 80.6765 4.21378 80.7379 3.06774C80.7379 2.73067 81.2905 2.12393 81.6589 2.05652C82.0273 1.9891 82.6413 2.46101 82.7641 2.79808C83.8692 6.03397 84.8516 9.26987 85.8953 12.5732C86.2023 13.6518 85.8339 14.4608 84.7902 14.7979C80.7993 15.8765 76.8085 17.0225 72.7562 18.0338C71.8353 18.236 70.7301 17.9663 69.5022 17.9663C70.4845 15.0675 72.6949 15.4045 74.2912 14.663C75.9489 13.854 77.7295 13.3822 79.8784 12.5732C74.7824 8.79796 69.625 6.43846 64.1606 4.95534C44.1449 -0.572639 25.7256 4.01154 8.71847 16.2809C6.50815 17.8989 4.48204 19.7865 2.33312 21.4719C1.65774 21.8089 1.04375 22.146 0 22.8202Z" fill="url(#paint0_linear_1_296)"/>
</g>
<defs>
<linearGradient id="paint0_linear_1_296" x1="0" y1="11.4101" x2="86" y2="11.4101" gradientUnits="userSpaceOnUse">
<stop stop-color="#3C78E4"/>
<stop offset="1" stop-color="#29C6EA"/>
</linearGradient>
</defs>
</svg>
