<svg width="55" height="57" viewBox="0 0 55 57" fill="none" xmlns="http://www.w3.org/2000/svg">
<path d="M6.08333 56.1158C4.41042 56.1158 2.9783 55.5663 1.78698 54.4674C0.59566 53.3685 0 52.0474 0 50.5042V11.2232C0 9.67998 0.59566 8.35892 1.78698 7.25998C2.9783 6.16105 4.41042 5.61158 6.08333 5.61158H18.8583C19.5174 3.92811 20.62 2.57197 22.1661 1.54318C23.7123 0.514395 25.4486 0 27.375 0C29.3014 0 31.0377 0.514395 32.5839 1.54318C34.13 2.57197 35.2326 3.92811 35.8917 5.61158H48.6667C50.3396 5.61158 51.7717 6.16105 52.963 7.25998C54.1543 8.35892 54.75 9.67998 54.75 11.2232V50.5042C54.75 52.0474 54.1543 53.3685 52.963 54.4674C51.7717 55.5663 50.3396 56.1158 48.6667 56.1158H6.08333ZM6.08333 50.5042H48.6667V11.2232H6.08333V50.5042ZM12.1667 44.8926H33.4583V39.2811H12.1667V44.8926ZM12.1667 33.6695H42.5833V28.0579H12.1667V33.6695ZM12.1667 22.4463H42.5833V16.8347H12.1667V22.4463ZM27.375 9.11882C28.034 9.11882 28.579 8.92007 29.0099 8.52259C29.4408 8.1251 29.6562 7.6224 29.6562 7.01447C29.6562 6.40655 29.4408 5.90385 29.0099 5.50636C28.579 5.10888 28.034 4.91013 27.375 4.91013C26.716 4.91013 26.171 5.10888 25.7401 5.50636C25.3092 5.90385 25.0938 6.40655 25.0938 7.01447C25.0938 7.6224 25.3092 8.1251 25.7401 8.52259C26.171 8.92007 26.716 9.11882 27.375 9.11882Z" fill="url(#paint0_linear_1_276)"/>
<defs>
<linearGradient id="paint0_linear_1_276" x1="0" y1="28.0579" x2="18.5103" y2="28.044" gradientUnits="userSpaceOnUse">
<stop stop-color="#3D7AE5"/>
<stop offset="1" stop-color="#008E50"/>
</linearGradient>
</defs>
</svg>
