<svg width="61" height="69" viewBox="0 0 61 69" fill="none" xmlns="http://www.w3.org/2000/svg">
<path d="M6.91667 68.5881L1.38333 64.7599L10.375 53.6742V36.6867C10.375 35.0384 10.5335 33.2174 10.8505 31.2235C11.1675 29.2297 11.5854 27.4352 12.1042 25.8402L6.91667 28.5518V39.8768H0V24.8831L18.675 15.0734C19.1361 14.8076 19.626 14.6215 20.1448 14.5152C20.6635 14.4088 21.2111 14.3557 21.7875 14.3557C23.1708 14.3557 24.4389 14.6747 25.5917 15.3127C26.7444 15.9507 27.609 16.828 28.1854 17.9446L30.8656 23.2881C32.0184 25.6275 33.7764 27.3821 36.1396 28.5518C38.5028 29.7215 41.4424 30.3064 44.9583 30.3064V36.6867H41.5865L60.5208 67.1525L57.4948 68.7476L37.0042 35.8094C34.6986 35.1182 32.6092 34.1213 30.7359 32.8186C28.8627 31.516 27.2632 29.9342 25.9375 28.0733C25.3611 29.6152 24.9144 31.383 24.5974 33.3769C24.2804 35.3707 24.1795 37.2184 24.2948 38.9198L31.125 47.8522V68.5881H24.2083V52.6374L18.0698 44.5025L17.2917 55.8275L6.91667 68.5881ZM25.9375 12.7606C24.0354 12.7606 22.4071 12.1358 21.0526 10.8864C19.6981 9.6369 19.0208 8.13487 19.0208 6.38029C19.0208 4.62571 19.6981 3.12368 21.0526 1.87421C22.4071 0.624737 24.0354 0 25.9375 0C27.8396 0 29.4679 0.624737 30.8224 1.87421C32.1769 3.12368 32.8542 4.62571 32.8542 6.38029C32.8542 8.13487 32.1769 9.6369 30.8224 10.8864C29.4679 12.1358 27.8396 12.7606 25.9375 12.7606Z" fill="url(#paint0_linear_1_282)"/>
<defs>
<linearGradient id="paint0_linear_1_282" x1="0" y1="34.3738" x2="20.4613" y2="34.36" gradientUnits="userSpaceOnUse">
<stop stop-color="#3D7AE5"/>
<stop offset="1" stop-color="#008E50"/>
</linearGradient>
</defs>
</svg>
