<svg width="87" height="41" viewBox="0 0 87 41" fill="none" xmlns="http://www.w3.org/2000/svg">
<path d="M0 40.1266V34.86C0 32.4636 1.32917 30.513 3.9875 29.0082C6.64583 27.5035 10.15 26.7511 14.5 26.7511C15.2854 26.7511 16.0406 26.765 16.7656 26.7929C17.4906 26.8208 18.1854 26.8904 18.85 27.0019C18.0042 28.1722 17.3698 29.3983 16.9469 30.6802C16.524 31.962 16.3125 33.2995 16.3125 34.6928V40.1266H0ZM21.75 40.1266V34.6928C21.75 32.9094 22.2786 31.2793 23.3359 29.8024C24.3932 28.3255 25.8885 27.0298 27.8219 25.9151C29.7552 24.8005 32.0661 23.9645 34.7547 23.4072C37.4432 22.8499 40.3583 22.5712 43.5 22.5712C46.7021 22.5712 49.6474 22.8499 52.3359 23.4072C55.0245 23.9645 57.3354 24.8005 59.2688 25.9151C61.2021 27.0298 62.6823 28.3255 63.7094 29.8024C64.7365 31.2793 65.25 32.9094 65.25 34.6928V40.1266H21.75ZM70.6875 40.1266V34.6928C70.6875 33.2438 70.4911 31.8784 70.0984 30.5966C69.7057 29.3147 69.1167 28.1165 68.3313 27.0019C68.9958 26.8904 69.6755 26.8208 70.3703 26.7929C71.0651 26.765 71.775 26.7511 72.5 26.7511C76.85 26.7511 80.3542 27.4895 83.0125 28.9664C85.6708 30.4433 87 32.4078 87 34.86V40.1266H70.6875ZM29.4531 33.4389H57.6375C57.0333 32.3242 55.3568 31.3489 52.6078 30.513C49.8589 29.677 46.8229 29.259 43.5 29.259C40.1771 29.259 37.1411 29.677 34.3922 30.513C31.6432 31.3489 29.9969 32.3242 29.4531 33.4389ZM14.5 23.4072C12.5063 23.4072 10.7995 22.7524 9.37969 21.4427C7.9599 20.133 7.25 18.5586 7.25 16.7194C7.25 14.8246 7.9599 13.2362 9.37969 11.9544C10.7995 10.6726 12.5063 10.0317 14.5 10.0317C16.5542 10.0317 18.276 10.6726 19.6656 11.9544C21.0552 13.2362 21.75 14.8246 21.75 16.7194C21.75 18.5586 21.0552 20.133 19.6656 21.4427C18.276 22.7524 16.5542 23.4072 14.5 23.4072ZM72.5 23.4072C70.5062 23.4072 68.7995 22.7524 67.3797 21.4427C65.9599 20.133 65.25 18.5586 65.25 16.7194C65.25 14.8246 65.9599 13.2362 67.3797 11.9544C68.7995 10.6726 70.5062 10.0317 72.5 10.0317C74.5542 10.0317 76.276 10.6726 77.6656 11.9544C79.0552 13.2362 79.75 14.8246 79.75 16.7194C79.75 18.5586 79.0552 20.133 77.6656 21.4427C76.276 22.7524 74.5542 23.4072 72.5 23.4072ZM43.5 20.0633C40.4792 20.0633 37.9115 19.088 35.7969 17.1374C33.6823 15.1868 32.625 12.8182 32.625 10.0317C32.625 7.18936 33.6823 4.80684 35.7969 2.8841C37.9115 0.961367 40.4792 0 43.5 0C46.5812 0 49.1641 0.961367 51.2484 2.8841C53.3328 4.80684 54.375 7.18936 54.375 10.0317C54.375 12.8182 53.3328 15.1868 51.2484 17.1374C49.1641 19.088 46.5812 20.0633 43.5 20.0633ZM43.5 13.3755C44.5271 13.3755 45.388 13.0551 46.0828 12.4142C46.7776 11.7733 47.125 10.9791 47.125 10.0317C47.125 9.08423 46.7776 8.29005 46.0828 7.64914C45.388 7.00823 44.5271 6.68777 43.5 6.68777C42.4729 6.68777 41.612 7.00823 40.9172 7.64914C40.2224 8.29005 39.875 9.08423 39.875 10.0317C39.875 10.9791 40.2224 11.7733 40.9172 12.4142C41.612 13.0551 42.4729 13.3755 43.5 13.3755Z" fill="url(#paint0_linear_1_279)"/>
<defs>
<linearGradient id="paint0_linear_1_279" x1="0" y1="20.0633" x2="29.4135" y2="20.0143" gradientUnits="userSpaceOnUse">
<stop stop-color="#3D7AE5"/>
<stop offset="1" stop-color="#008E50"/>
</linearGradient>
</defs>
</svg>
