<svg width="56" height="52" viewBox="0 0 56 52" fill="none" xmlns="http://www.w3.org/2000/svg">
<path d="M27.75 28.4423V2.84423C27.75 2.03836 28.0455 1.36286 28.6365 0.817715C29.2274 0.272572 29.9597 0 30.8333 0H52.4167C53.2903 0 54.0226 0.272572 54.6135 0.817715C55.2045 1.36286 55.5 2.03836 55.5 2.84423V17.0654C55.5 17.8712 55.2045 18.5467 54.6135 19.0919C54.0226 19.637 53.2903 19.9096 52.4167 19.9096H37L27.75 28.4423ZM33.9167 14.2211H49.3333V5.68845H33.9167V14.2211ZM52.2625 51.1961C45.8389 51.1961 39.4924 49.9043 33.2229 47.3208C26.9535 44.7373 21.2493 41.0754 16.1104 36.335C10.9715 31.5946 7.00174 26.3328 4.20104 20.5495C1.40035 14.7663 0 8.91191 0 2.98644C0 2.13317 0.308333 1.42211 0.925 0.853268C1.54167 0.284423 2.3125 0 3.2375 0H15.725C16.4444 0 17.0868 0.225168 17.6521 0.675504C18.2174 1.12584 18.5514 1.65913 18.6542 2.27538L20.6583 12.2302C20.7611 12.9886 20.7354 13.6286 20.5812 14.15C20.4271 14.6715 20.1444 15.1218 19.7333 15.501L12.2563 22.4694C13.284 24.2233 14.5045 25.918 15.9177 27.5534C17.3309 29.1889 18.8854 30.765 20.5812 32.282C22.1743 33.7515 23.8444 35.1143 25.5917 36.3705C27.3389 37.6267 29.1889 38.7763 31.1417 39.8192L38.3875 33.1352C38.85 32.7086 39.4538 32.3886 40.199 32.1753C40.9441 31.962 41.6764 31.9027 42.3958 31.9975L53.0333 33.9885C53.7528 34.1781 54.3437 34.5218 54.8062 35.0195C55.2687 35.5173 55.5 36.0743 55.5 36.6905V48.2096C55.5 49.0629 55.1917 49.774 54.575 50.3428C53.9583 50.9116 53.1875 51.1961 52.2625 51.1961ZM9.32708 17.0654L14.4146 12.3724L13.1042 5.68845H6.24375C6.50069 7.63201 6.86042 9.55186 7.32292 11.448C7.78542 13.3442 8.45347 15.2166 9.32708 17.0654ZM36.9229 42.5212C38.9271 43.327 40.9698 43.967 43.051 44.441C45.1323 44.9151 47.2264 45.2232 49.3333 45.3654V39.1081L42.0875 37.7571L36.9229 42.5212Z" fill="url(#paint0_linear_1_303)"/>
<defs>
<linearGradient id="paint0_linear_1_303" x1="0" y1="25.598" x2="18.7639" y2="25.5824" gradientUnits="userSpaceOnUse">
<stop stop-color="#3D7AE5"/>
<stop offset="1" stop-color="#008E50"/>
</linearGradient>
</defs>
</svg>
