<svg width="35" height="38" viewBox="0 0 35 38" fill="none" xmlns="http://www.w3.org/2000/svg">
<path d="M17.094 16.8091C18.1387 16.8091 19.0329 16.3976 19.7768 15.5747C20.5207 14.7518 20.8927 13.7625 20.8927 12.6068C20.8927 11.4512 20.5207 10.4619 19.7768 9.63898C19.0329 8.81603 18.1387 8.40456 17.094 8.40456C16.0494 8.40456 15.1551 8.81603 14.4112 9.63898C13.6673 10.4619 13.2953 11.4512 13.2953 12.6068C13.2953 13.7625 13.6673 14.7518 14.4112 15.5747C15.1551 16.3976 16.0494 16.8091 17.094 16.8091ZM7.59734 37.8205V33.6182H15.1947V27.1047C13.6436 26.7195 12.2586 25.9929 11.0399 24.9248C9.82115 23.8567 8.92688 22.5172 8.35708 20.9063C5.98291 20.5912 3.99652 19.4443 2.39791 17.4657C0.799304 15.4872 0 13.1671 0 10.5057V8.40456C0 7.24893 0.371953 6.25965 1.11586 5.4367C1.85977 4.61375 2.75404 4.20228 3.79867 4.20228H7.59734V0H26.5907V4.20228H30.3894C31.434 4.20228 32.3283 4.61375 33.0722 5.4367C33.8161 6.25965 34.188 7.24893 34.188 8.40456V10.5057C34.188 13.1671 33.3887 15.4872 31.7901 17.4657C30.1915 19.4443 28.2051 20.5912 25.831 20.9063C25.2612 22.5172 24.3669 23.8567 23.1481 24.9248C21.9294 25.9929 20.5445 26.7195 18.9934 27.1047V33.6182H26.5907V37.8205H7.59734ZM7.59734 16.3889V8.40456H3.79867V10.5057C3.79867 11.8364 4.14688 13.0358 4.8433 14.1039C5.53973 15.172 6.45774 15.9336 7.59734 16.3889ZM17.094 23.1125C18.6768 23.1125 20.0222 22.4997 21.1301 21.274C22.2381 20.0484 22.792 18.5601 22.792 16.8091V4.20228H11.396V16.8091C11.396 18.5601 11.95 20.0484 13.0579 21.274C14.1659 22.4997 15.5112 23.1125 17.094 23.1125ZM26.5907 16.3889C27.7303 15.9336 28.6483 15.172 29.3447 14.1039C30.0412 13.0358 30.3894 11.8364 30.3894 10.5057V8.40456H26.5907V16.3889Z" fill="#3C76E4"/>
</svg>
