<svg width="103" height="195" viewBox="0 0 103 195" fill="none" xmlns="http://www.w3.org/2000/svg">
<g clip-path="url(#clip0_1_305)">
<rect width="112" height="195" fill="white" fill-opacity="0.3"/>
<path d="M72.4286 139.764C72.5696 139.849 82.4334 135.192 82.5745 135.271L82.7042 135.055L82.8226 134.863C78.3468 132.195 75.7262 127.408 73.1955 122.779C70.9017 118.581 68.5285 114.235 64.7408 111.341C59.0706 106.996 51.4727 106.701 43.5367 106.774L20.7712 106.989C20.3898 106.982 20.0095 107.033 19.6439 107.143H19.5932L19.4354 107.2C19.1096 107.321 18.815 107.515 18.573 107.766L18.5166 107.823C18.3167 108.053 18.1857 108.336 18.139 108.638C18.1011 109.052 18.1736 109.468 18.3489 109.845C18.5242 110.221 18.7961 110.544 19.1367 110.78C19.9193 111.261 20.8036 111.55 21.7181 111.624L33.9942 113.545L15.1292 113.233C13.9422 113.129 12.7471 113.289 11.629 113.703C11.2678 113.863 10.9697 114.139 10.7818 114.487C10.5941 114.836 10.5272 115.238 10.5919 115.629C10.6444 116.033 10.8281 116.408 11.1146 116.696C11.401 116.984 11.774 117.169 12.1757 117.221L33.222 120.179L10.7835 120.609C10.0846 120.609 8.44444 120.649 7.96532 121.934C7.85516 122.279 7.84326 122.647 7.93094 122.997C8.01863 123.348 8.20236 123.667 8.46131 123.918C9.33498 124.801 10.5863 124.909 11.5895 124.988L29.5528 126.462L13.8384 127.861C12.6153 127.968 11.1724 128.274 10.9244 129.645C10.8834 129.922 10.902 130.204 10.9788 130.473C11.0556 130.742 11.1889 130.991 11.3697 131.203C12.1419 132.133 13.2523 132.337 14.419 132.484C21.4875 133.363 28.6572 132.913 35.5611 131.152L40.0308 129.385L72.4286 139.764Z" fill="#E98EAB"/>
<path d="M30.201 133.928C29.8914 133.661 29.6679 133.307 29.5585 132.912C29.4491 132.516 29.4589 132.097 29.5866 131.708C29.8531 130.931 30.3038 130.231 30.8999 129.668C33.2434 127.194 36.1769 125.363 39.4221 124.348C41.4795 123.708 43.6776 123.391 45.5095 122.264C46.5297 121.635 47.3864 120.785 48.3276 120.06C50.1929 118.654 52.3859 117.753 54.6968 117.443C55.8149 117.288 56.9529 117.369 58.0376 117.683C59.1224 117.996 60.1297 118.534 60.9951 119.263C61.8604 119.991 62.5645 120.894 63.0621 121.912C63.5596 122.93 63.8397 124.042 63.8841 125.176L64.0476 129.017C64.097 130.377 63.781 131.726 63.1329 132.921C62.4848 134.116 61.5284 135.114 60.3642 135.809C59.2001 136.505 57.871 136.872 56.5167 136.873C55.1625 136.874 53.8329 136.509 52.6677 135.815L52.5042 135.724C46.6142 132.326 39.394 131.73 33.6617 134.132C32.619 134.569 31.1874 135.163 30.1277 134.388C29.7784 134.088 29.5251 133.692 29.3997 133.249C29.2743 132.805 29.2824 132.334 29.4232 131.895C29.7017 131.082 30.1739 130.351 30.7984 129.764C33.1671 127.258 36.1365 125.404 39.4221 124.382C39.9857 124.201 40.6115 124.043 41.1976 123.889C42.6843 123.58 44.1179 123.053 45.4531 122.326C46.0814 121.915 46.6803 121.461 47.2455 120.966C47.578 120.683 47.9105 120.4 48.26 120.139" fill="#F0A7C2"/>
<g style="mix-blend-mode:overlay" opacity="0.65">
<path d="M30.0938 133.906C27.4053 131.215 34.0844 127.108 36.136 126.071C38.6611 124.694 41.4962 124.371 44.1792 123.391C46.8621 122.411 48.6207 119.783 51.3431 118.797C54.7249 117.256 58.7944 117.29 61.4886 120.145C62.8083 121.498 63.6243 123.266 63.7995 125.153C63.8065 123.195 63.1145 121.3 61.8493 119.811C57.5713 114.774 50.3003 117.148 46.1575 121.108C43.1759 123.527 39.0275 123.335 35.7978 125.38C33.6109 126.575 27.0614 131.238 30.1163 133.906H30.0938Z" fill="#5A0037"/>
</g>
<g style="mix-blend-mode:overlay" opacity="0.27">
<path d="M34.0281 113.55L26.5035 110.321C24.8126 109.602 23.1216 109.013 21.3687 108.446C20.9965 108.329 20.6447 108.156 20.326 107.93C20.0405 107.722 19.8023 107.456 19.6271 107.148L19.4692 107.205C19.1485 107.337 18.8559 107.529 18.6069 107.771L18.5505 107.828C18.3505 108.059 18.2197 108.342 18.1729 108.644C18.135 109.058 18.2075 109.474 18.3828 109.851C18.5581 110.227 18.8301 110.55 19.1705 110.786C19.9531 111.267 20.8375 111.556 21.752 111.63L34.0281 113.55Z" fill="#5A0037"/>
<path d="M15.445 117.686L33.2222 120.179L13.3708 114.372C13.1076 114.337 12.855 114.246 12.6302 114.104C12.4054 113.962 12.2139 113.774 12.0688 113.55C11.9307 113.596 11.7953 113.648 11.6629 113.709C11.3017 113.868 11.0036 114.144 10.8158 114.493C10.628 114.842 10.5612 115.244 10.6258 115.635C10.6783 116.039 10.8621 116.414 11.1485 116.701C11.435 116.99 11.808 117.174 12.2097 117.227L15.445 117.686Z" fill="#5A0037"/>
<path d="M29.5754 126.462L16.093 122.966C14.6445 122.592 13.1847 122.235 11.708 121.992C10.9364 121.906 10.2128 121.572 9.64503 121.04C9.5565 120.946 9.47547 120.846 9.40267 120.74C9.06412 120.793 8.74783 120.943 8.49051 121.171C8.2332 121.398 8.04556 121.694 7.9493 122.025C7.85303 122.356 7.85218 122.707 7.94682 123.038C8.04145 123.369 8.22774 123.667 8.48392 123.895C9.35759 124.779 10.6089 124.887 11.6121 124.966L13.9118 125.153" fill="#5A0037"/>
<path d="M72.4293 139.764C72.5696 139.849 82.4334 135.192 82.5745 135.271L82.7042 135.055L82.8226 134.863C82.1938 134.488 81.5927 134.068 81.0242 133.605C78.0484 134.948 73.6974 137.005 73.5847 136.925L66.9166 134.789C64.2151 133.927 61.3604 133.658 58.5465 134.002C56.9053 134.197 55.2456 133.845 53.8232 132.999L53.6598 132.908C47.7697 129.51 40.5495 128.914 34.8173 131.311C33.7745 131.753 32.3428 132.348 31.2832 131.572C30.992 131.327 30.7669 131.012 30.629 130.656C30.491 130.301 30.4446 129.916 30.4941 129.538C25.5542 130.225 20.5463 130.261 15.5971 129.645C14.4304 129.503 13.3425 129.294 12.5422 128.365C12.4864 128.297 12.4355 128.225 12.39 128.15C12.0716 128.218 11.7767 128.369 11.5344 128.587C11.2923 128.806 11.1114 129.084 11.0098 129.395C10.9083 129.706 10.8897 130.038 10.9558 130.358C11.0219 130.678 11.1705 130.976 11.3867 131.22C12.1589 132.149 13.2692 132.353 14.436 132.5C19.3851 133.116 24.3932 133.081 29.333 132.393C29.2835 132.771 29.3299 133.156 29.4678 133.512C29.6058 133.867 29.8308 134.182 30.1221 134.427C31.1817 135.203 32.6134 134.608 33.6561 134.166C39.3883 131.77 46.6199 132.381 52.5043 135.764L52.6621 135.855C53.8157 136.54 55.1302 136.905 56.4706 136.911C57.8109 136.917 59.1285 136.564 60.2882 135.889L72.4293 139.764Z" fill="#5A0037"/>
</g>
<path d="M58.7719 145.339C67.7881 141.506 76.155 136.284 83.5718 129.861C81.3176 127.334 78.967 124.91 76.6108 122.496C70.0991 129.356 62.0391 134.539 53.1129 137.606C55.1352 140.08 57.0242 142.662 58.7719 145.339Z" fill="#90BDEA"/>
<path d="M70.4222 194.378L111.872 193.437C113.411 185.506 95.7125 147.707 91.6882 140.789C89.349 136.88 86.622 133.218 83.5491 129.861C76.1323 136.284 67.7654 141.505 58.7493 145.339C66.1498 156.686 68.6355 180.815 70.4222 194.378Z" fill="#78DBA1"/>
<mask id="mask0_1_305" style="mask-type:luminance" maskUnits="userSpaceOnUse" x="58" y="129" width="54" height="66">
<path d="M70.4222 194.378L111.872 193.437C113.411 185.506 95.7125 147.707 91.6882 140.789C89.349 136.88 86.622 133.218 83.5491 129.861C76.1323 136.284 67.7654 141.505 58.7493 145.339C66.1498 156.686 68.6355 180.815 70.4222 194.378Z" fill="white"/>
</mask>
<g mask="url(#mask0_1_305)">
<path d="M81.0356 198.848C79.1812 198.347 77.5083 197.323 76.2146 195.896C74.9209 194.47 74.0597 192.701 73.7343 190.799C73.4082 188.897 73.6308 186.941 74.3751 185.161C75.1194 183.382 76.3549 181.855 77.9357 180.759C80.1112 179.246 82.8056 178.646 84.9924 177.144C87.1792 175.643 88.7685 172.567 87.309 170.346C86.8347 169.709 86.1932 169.216 85.4567 168.925C84.7202 168.632 83.9178 168.552 83.138 168.692C81.5807 168.996 80.1516 169.768 79.0401 170.906C76.7236 173.076 75.1626 176.402 76.036 179.462C77.017 182.9 81.0185 184.951 84.4905 184.231C87.9625 183.512 90.6909 180.452 91.6153 176.997C92.5396 173.541 91.7953 169.796 90.1947 166.607C88.9436 164.108 87.1232 161.672 87.236 158.879C87.382 155.242 90.781 152.585 94.18 151.316C96.203 150.557 98.4069 150.098 100.521 150.534C102.635 150.97 104.63 152.466 105.199 154.556C106.112 157.899 102.866 161.355 99.4269 161.519C95.989 161.683 92.8104 159.474 90.7356 156.709C88.3177 153.475 86.6327 149.135 82.8056 147.883C81.2674 147.43 79.6185 147.556 78.1661 148.237C76.7143 148.918 75.5582 150.107 74.9145 151.582C74.5679 152.424 74.429 153.337 74.5084 154.244C74.5878 155.152 74.8841 156.026 75.371 156.794C75.8836 157.545 76.6094 158.124 77.4544 158.455C78.2986 158.785 79.223 158.852 80.1055 158.647C82.8169 157.888 83.927 154.381 83.1607 151.656C82.3937 148.931 80.3423 146.8 78.5049 144.664C76.6676 142.529 74.8472 140.076 74.7565 137.249C74.6381 133.612 77.3722 130.535 80.2523 128.326C81.9429 127.051 83.7583 125.89 85.8211 125.522C87.8839 125.153 90.2231 125.709 91.5253 127.363C92.8267 129.017 92.8381 131.238 93.3173 133.255C93.8454 135.467 94.959 137.494 96.539 139.123C98.1198 140.751 100.108 141.92 102.296 142.506C104.483 143.091 106.786 143.072 108.963 142.45C111.14 141.828 113.109 140.625 114.662 138.971C115.446 138.133 116.145 137.107 116.156 135.957C116.167 134.807 115.209 133.606 114.071 133.742C113.095 133.861 112.436 134.875 112.38 135.872C112.403 136.853 112.632 137.819 113.051 138.705C117.101 149.322 118.21 160.845 116.257 172.045C114.984 179.251 111.94 186.843 105.515 190.282C102.888 191.687 99.9061 192.276 97.1841 193.483C94.4614 194.689 91.835 196.814 91.2999 199.755C90.8597 202.196 91.8634 204.984 90.5102 207.046C89.1577 209.108 86.0011 209.182 83.4762 208.955C79.3392 208.587 74.9819 208.133 71.6396 205.697C67.0912 202.411 65.4848 196.208 65.9527 190.599C66.4205 184.991 68.5792 179.688 70.1687 174.288C71.758 168.89 72.7617 163.009 70.918 157.695C69.705 154.414 67.5015 151.597 64.616 149.637C61.7305 147.677 58.3076 146.674 54.8264 146.767" stroke="#9C69FF" stroke-width="2.37" stroke-miterlimit="10"/>
</g>
<g style="mix-blend-mode:overlay" opacity="0.27">
<path d="M111.906 193.437C112.267 191.562 111.563 188.033 110.215 183.636L96.4058 183.948C91.8712 184.051 87.4543 182.492 83.9794 179.561C80.5046 176.631 78.21 172.529 77.5238 168.022C75.6978 156.035 72.9531 142.834 68.0493 135.282C67.2377 134.042 66.3979 132.812 65.5242 131.611C61.642 134.092 57.4793 136.098 53.1241 137.588C55.1378 140.07 57.0193 142.657 58.7606 145.339C66.1386 156.669 68.6243 180.815 70.4392 194.378L111.906 193.437Z" fill="#5A0037"/>
</g>
<path d="M17.7163 82.6233C19.5275 83.1557 21.3555 83.7449 23.2006 84.3907C23.5613 84.5096 23.9164 84.6403 24.2771 84.7703H24.3335L25.2015 85.0877L25.8834 85.3429L26.4471 85.5469L27.5237 85.9659C27.9464 86.1305 28.3635 86.2999 28.7862 86.4755C29.209 86.6512 29.457 86.748 29.8008 86.8891L30.8041 87.3143L31.6045 87.6601L32.9064 88.2264C33.611 88.5493 34.3099 88.8722 35.0144 89.2125L35.719 89.552L36.4292 89.8977L37.1338 90.2545C37.393 90.379 37.6523 90.5208 37.9116 90.6514L38.5485 90.9799L39.2304 91.3422C39.5912 91.5352 39.9576 91.7274 40.3183 91.9086L41.1018 92.3394L42.0937 92.9057L42.9505 92.3733L43.5592 91.9597C44.1229 91.5635 44.7316 91.1777 45.3235 90.8271C45.6841 90.5885 46.0505 90.3624 46.4225 90.1411C46.7946 89.9205 46.9862 89.7788 47.3018 89.6031C47.6175 89.4275 47.8654 89.2463 48.1868 89.0762L48.8856 88.6793C49.2464 88.4698 49.6127 88.2658 49.9734 88.068L50.5992 87.7334L51.2079 87.416L51.9349 87.0363L52.0703 86.9741L52.8311 86.5945C52.8964 86.5564 52.9642 86.5219 53.0341 86.4928L53.8006 86.1305L54.5615 85.7792L54.6968 85.7163L54.7982 85.6713L55.6606 85.2972L56.5907 84.901C57.4192 84.5608 58.2478 84.2379 59.0875 83.9378C59.5835 83.7566 60.0908 83.581 60.5925 83.4164H60.6375C61.0603 83.2746 61.4887 83.1391 61.9114 83.0139H61.9677L62.6103 82.8272L63.7827 82.5043C64.0814 82.431 64.3801 82.3515 64.6788 82.2837L65.6201 82.0625L66.5389 81.864C66.8263 81.8073 67.1025 81.7451 67.4238 81.6939L67.7845 81.6317H67.9029H67.9311L68.2241 81.5812H68.2974H68.3312C68.3989 81.5812 68.4722 81.5812 68.5455 81.5466L68.7934 81.5072C68.9851 81.4733 69.1824 81.4394 69.3571 81.4166C69.684 81.3654 70.0109 81.3205 70.3434 81.2866C70.676 81.252 70.9804 81.2071 71.3015 81.1732C65.2819 79.1955 59.5948 77.2981 54.0261 75.5867L51.315 74.7714C50.1256 74.4146 48.9364 74.0744 47.7584 73.7459C46.1971 73.3041 44.6358 72.8788 43.0745 72.4826L42.353 72.3014C40.9496 72.8677 39.5348 73.4341 38.0525 74.035L35.3921 75.1109C34.4846 75.4795 33.5659 75.8474 32.6472 76.2443C27.7548 78.1141 22.6933 80.2777 17.7163 82.6233Z" fill="#F6D386"/>
<g style="mix-blend-mode:overlay" opacity="0.44">
<path d="M17.7162 82.6233C19.5274 83.1558 21.3554 83.7449 23.2004 84.3908C23.5612 84.5097 23.9162 84.6404 24.277 84.7704H24.3333L25.2014 85.0878L25.8833 85.343L26.447 85.5469L27.5236 85.966C27.9463 86.1306 28.3634 86.3 28.7861 86.4756C29.2089 86.6513 29.4568 86.7481 29.8006 86.8891L30.804 87.3144L31.6043 87.6601L32.9063 88.2265C33.6109 88.5494 34.3098 88.8723 35.0143 89.2125L35.7189 89.552L36.429 89.8978L37.1337 90.2546C37.3929 90.3791 37.6522 90.5208 37.9115 90.6515L38.5484 90.98L39.2303 91.3423C39.5911 91.5352 39.9575 91.7275 40.3182 91.9086L41.1016 92.3394L42.0936 92.9058L42.2402 81.315L42.274 79.3775V79.224V77.7628V77.3943L42.3529 72.1708L37.8945 73.7571L38.0523 73.9043L35.392 74.981C34.4845 75.3489 33.5657 75.7174 32.6471 76.1136C27.7546 78.1141 22.6932 80.2778 17.7162 82.6233Z" fill="#5A0037"/>
</g>
<path d="M19.131 107.891C19.0859 108.894 19.0296 109.885 18.9563 110.86C19.0521 109.885 19.131 108.894 19.131 107.891Z" fill="#F6D386"/>
<path d="M18.9788 110.859C18.883 112.157 18.7702 113.431 18.6237 114.666C18.7702 113.431 18.8886 112.157 18.9788 110.859Z" fill="#F6D386"/>
<path d="M18.1109 85.2689C18.0657 84.9688 18.0263 84.6743 17.9812 84.3741C18.1503 85.558 18.3081 86.7757 18.4434 88.0169C18.4096 87.6995 18.3758 87.3932 18.3419 87.0876C18.2686 86.4756 18.1897 85.8698 18.1109 85.2689Z" fill="#F6D386"/>
<path d="M17.7896 83.0596C17.8572 83.4959 17.9192 83.9322 17.9868 84.3741C17.9417 84.0795 17.9023 83.8078 17.8628 83.4959L17.7896 83.0596Z" fill="#F6D386"/>
<path d="M17.7106 82.6233C17.7106 82.7706 17.7557 82.9123 17.7839 83.0596L17.7162 82.6233H17.7106Z" fill="#F6D386"/>
<path d="M18.6294 114.667C21.8609 116.147 25.0136 117.643 28.0873 119.154L29.812 120.02C34.7608 122.508 39.5123 125.119 43.9989 127.952C44.5256 121.07 44.4313 114.155 43.717 107.291C43.2661 102.43 42.6405 97.603 42.0712 92.9513C41.113 92.385 40.1661 91.8809 39.2079 91.3768L38.5259 91.0138L37.889 90.6853C37.6298 90.5553 37.3705 90.4136 37.1112 90.2891L36.4066 89.9316L35.6964 89.5866L34.9919 89.2463C34.2873 88.9068 33.5884 88.5839 32.8839 88.261L31.5819 87.6939L30.7815 87.3482L29.7782 86.9236C29.4344 86.7819 29.1019 86.6401 28.7637 86.5101C28.4255 86.3794 27.9238 86.1644 27.5011 86.0005C26.4189 85.5697 25.3424 85.1672 24.2771 84.7821C23.9164 84.6521 23.5612 84.5214 23.2006 84.4025C21.3593 83.7566 19.5312 83.1675 17.7163 82.635C18.0883 84.9349 18.3983 87.3766 18.6463 89.8977C18.6463 90.0678 18.6632 90.2379 18.697 90.408C18.697 90.7476 18.759 91.076 18.7816 91.4218C18.8041 91.7675 18.8436 92.1015 18.8662 92.4472C18.945 93.4727 19.0183 94.5093 19.0747 95.5465C19.0747 95.8978 19.1141 96.2428 19.1311 96.5886C19.2156 98.4867 19.2607 100.401 19.272 102.3C19.272 102.639 19.272 102.985 19.272 103.325C19.272 104.186 19.272 105.024 19.2325 105.88C19.2325 106.22 19.2325 106.56 19.2325 106.894L19.1874 107.902C19.1423 108.905 19.086 109.891 19.0127 110.865C18.8887 112.157 18.7703 113.432 18.6294 114.667Z" fill="#EC9E3A"/>
<g style="mix-blend-mode:overlay" opacity="0.34">
<path d="M18.6295 114.666C21.8609 116.147 25.0136 117.642 28.0874 119.153L29.8121 120.02C34.7609 122.507 39.5123 125.119 43.9989 127.952L17.7163 82.6288C18.0883 84.9287 18.3984 87.371 18.6463 89.8915C18.6463 90.0616 18.6633 90.2317 18.6971 90.4018C18.6971 90.7413 18.7591 91.0705 18.7817 91.4155C18.8042 91.7613 18.8437 92.096 18.8662 92.441C18.9451 93.4665 19.0183 94.5037 19.0748 95.5403C19.0748 95.8915 19.1142 96.2373 19.1311 96.5823C19.2156 98.4805 19.2607 100.395 19.272 102.293C19.272 102.633 19.272 102.979 19.272 103.319C19.272 104.18 19.272 105.019 19.2326 105.874C19.2326 106.213 19.2326 106.554 19.2326 106.888L19.1874 107.896C19.1423 108.899 19.086 109.885 19.0127 110.86C18.8887 112.157 18.7703 113.431 18.6295 114.666Z" fill="#5A0037"/>
</g>
<path d="M43.9989 127.963C48.6321 124.523 53.5631 121.509 58.7325 118.955C59.2961 118.678 59.8598 118.389 60.4234 118.133C64.5903 116.159 68.8789 114.456 73.2629 113.035C73.1275 112.355 72.9871 111.669 72.8347 110.973C72.7617 110.622 72.688 110.27 72.6093 109.919C72.5306 109.568 72.4569 109.205 72.3782 108.843C72.2996 108.48 72.2145 108.123 72.1358 107.755C71.0364 102.735 69.8813 97.1778 69.8813 91.4668V90.9454C69.8813 90.3341 69.8813 89.7222 69.9433 89.1157C69.9433 88.7479 69.9883 88.3793 70.0221 88.017C70.0221 87.8413 70.0222 87.6712 70.0673 87.4956C70.0954 87.2065 70.1292 86.9293 70.163 86.6229C70.3802 84.7345 70.7574 82.8674 71.2901 81.0426L70.3322 81.1505L69.5826 81.2521L69.1034 81.3206L68.7596 81.3773L68.2636 81.4561C67.6774 81.5543 67.0912 81.6622 66.505 81.779L65.592 81.9775C65.2763 82.0453 64.9606 82.1193 64.6507 82.1988C64.3407 82.2776 64.0476 82.3461 63.7488 82.4249C63.3543 82.5272 62.9654 82.6289 62.5765 82.7423L61.934 82.929L61.235 83.1447L60.6038 83.3487L59.9781 83.5582L59.0481 83.8812C58.2139 84.1833 57.3853 84.5042 56.5624 84.8444L55.6268 85.2406L54.7644 85.6147C54.7295 85.6293 54.6956 85.6465 54.663 85.6659L53.7893 86.0621H53.7555L52.9946 86.4245C52.9248 86.4542 52.8569 86.4881 52.7916 86.5268L52.0251 86.9064C51.9784 86.9258 51.9332 86.9486 51.8898 86.9742L51.1627 87.3428L50.554 87.6657L49.9284 88.0052C49.5677 88.2037 49.2013 88.4021 48.8406 88.6116L48.1416 89.0079L47.3131 89.541C47.0143 89.7167 46.7212 89.8978 46.4282 90.079C44.9627 90.98 43.5085 91.9426 42.0825 92.9459C42.6461 97.5913 43.2774 102.423 43.7227 107.285C44.4386 114.155 44.531 121.076 43.9989 127.963Z" fill="#F2BE57"/>
<g style="mix-blend-mode:soft-light">
<path d="M32.6583 76.0971C35.7189 77.0603 38.8584 78.1425 42.088 79.3153L42.2572 79.3775L44.4385 80.1762C48.3839 81.6435 52.4759 83.2132 56.5961 84.8105V84.8444C53.3946 93.7847 58.3772 115.97 58.7267 118.956C59.2904 118.678 59.854 118.389 60.4176 118.134C60.1189 116.395 59.1325 110.894 58.2983 104.696C56.9907 94.9236 56.9681 87.9831 58.6647 84.8278C58.8282 84.5215 58.9916 84.2158 59.1494 83.9095L59.0874 83.8819C54.8771 82.2216 50.7343 80.5786 46.6873 79.038L44.7428 78.3071L44.3369 78.148L43.8804 77.9779L42.2966 77.4116L41.5864 77.1509C39.4953 76.3916 37.4324 75.6725 35.3864 74.9983C34.5184 75.3779 33.5996 75.7174 32.6583 76.0971Z" fill="white"/>
<path d="M28.0873 119.16C28.6509 119.442 29.2427 119.726 29.8176 120.02C34.0393 112.384 31.0633 91.3824 30.7251 87.3711L30.7814 87.3372C35.4314 84.8893 40.0083 82.4532 44.461 80.1706L46.7156 79.0372C49.2125 77.7794 51.6699 76.5783 54.0767 75.4622C53.1711 75.1794 52.2674 74.9056 51.3656 74.6407C49.0772 75.7741 46.7381 76.9074 44.3652 78.148L42.1106 79.3152C37.7649 81.5812 33.2953 84.0056 28.758 86.4306V86.4929C28.758 86.6969 28.8087 86.9009 28.8368 87.1048C28.6057 87.2238 32.4836 111.743 28.0873 119.16Z" fill="white"/>
</g>
<path d="M8.09485 33.777C8.25831 34.2132 8.43305 34.6494 8.60778 35.0856C14.8755 50.6087 29.0623 65.5425 37.252 73.3041C37.3083 73.349 37.3591 73.4057 37.4098 73.4514C38.7738 74.7431 39.9687 75.8308 40.9213 76.6862C41.1749 76.913 41.4117 77.1225 41.6315 77.3092L42.6686 78.2158C43.1421 78.6237 43.4013 78.8332 43.4013 78.8332L44.0777 77.8534C44.1848 77.6833 44.3144 77.4966 44.4497 77.2871C45.1035 76.3065 46.0279 74.8959 47.1157 73.1568C51.9743 65.3895 60.1245 51.0619 62.3002 39.1307C62.3735 38.7228 62.4411 38.3205 62.4974 37.924" stroke="#5A0037" stroke-width="1.3" stroke-linejoin="round"/>
<path d="M43.3957 78.8332L40.8086 60.2284" stroke="#5A0037" stroke-width="1.3" stroke-miterlimit="10"/>
<path d="M0.378697 13.3704C2.13161 5.12727 10.7384 -0.957298 19.0296 0.124781C20.0091 0.252111 20.9739 0.476026 21.9098 0.79329C22.8157 1.09531 23.6944 1.47437 24.5363 1.92636C29.7669 4.81568 33.5208 10.5263 33.7011 16.5429C33.7011 16.9225 33.7011 17.3078 33.7011 17.676C33.966 17.0585 34.2648 16.4523 34.5578 15.8461C35.3589 14.2652 36.3021 12.7614 37.3761 11.3535C40.5381 7.22911 44.8104 3.98854 49.7762 2.75916C50.165 2.66285 50.5596 2.57787 50.9485 2.50989C58.0279 1.27484 66.0034 4.56074 68.985 11.1099C70.6083 14.6677 70.6759 18.5484 69.8305 22.3952C68.9462 26.118 67.5759 29.707 65.7554 33.0687C60.2373 43.7535 50.7738 54.733 42.1332 63.5142L41.3497 64.3017C38.8584 58.6364 34.1633 53.9115 29.1582 50.1384C22.5354 45.1529 15.0672 41.2608 9.07004 35.5275C3.07292 29.7941 -1.35168 21.5057 0.378697 13.3704Z" fill="#EA5A68"/>
<g style="mix-blend-mode:overlay">
<mask id="mask1_1_305" style="mask-type:luminance" maskUnits="userSpaceOnUse" x="0" y="0" width="71" height="65">
<g style="mix-blend-mode:overlay">
<path d="M0.378697 13.3704C2.13161 5.12727 10.7384 -0.957298 19.0296 0.124781C20.0091 0.252111 20.9739 0.476026 21.9098 0.79329C22.8157 1.09531 23.6944 1.47437 24.5363 1.92636C29.7669 4.81568 33.5208 10.5263 33.7011 16.5429C33.7011 16.9225 33.7011 17.3078 33.7011 17.676C33.966 17.0585 34.2648 16.4523 34.5578 15.8461C35.3589 14.2652 36.3021 12.7614 37.3761 11.3535C40.5381 7.22911 44.8104 3.98854 49.7762 2.75916C50.165 2.66285 50.5596 2.57787 50.9485 2.50989C58.0279 1.27484 66.0034 4.56074 68.985 11.1099C70.6083 14.6677 70.6759 18.5484 69.8305 22.3952C68.9462 26.118 67.5759 29.707 65.7554 33.0687C60.2373 43.7535 50.7738 54.733 42.1332 63.5142L41.3497 64.3017C38.8584 58.6364 34.1633 53.9115 29.1582 50.1384C22.5354 45.1529 15.0672 41.2608 9.07004 35.5275C3.07292 29.7941 -1.35168 21.5057 0.378697 13.3704Z" fill="white"/>
</g>
</mask>
<g mask="url(#mask1_1_305)">
<path d="M-0.686401 37.7823C6.67326 33.7168 12.6382 27.5099 16.4257 19.9761C17.3376 18.3298 17.9234 16.5212 18.1504 14.6507C18.2551 13.7146 18.1522 12.7668 17.8491 11.8755C17.546 10.9841 17.0503 10.1712 16.3976 9.4953C15.0335 8.20926 12.7452 7.875 11.2628 9.01374C10.6336 9.56071 10.1878 10.2895 9.98605 11.1007C9.78424 11.9118 9.83648 12.7658 10.1355 13.546C10.4528 14.3195 10.9299 15.0164 11.5353 15.5907C12.1406 16.165 12.8604 16.6035 13.647 16.8772C17.2261 18.2312 21.4646 16.5769 23.8883 13.6026C26.312 10.6283 27.1236 6.60595 27.0222 2.76485C26.8695 -2.35053 25.2143 -7.3061 22.265 -11.4778" stroke="#EA5A68" stroke-width="2.2" stroke-miterlimit="10"/>
<path d="M37.331 -3.18933C35.8373 2.69695 39.6476 9.42738 45.4474 11.1383C48.5306 12.0447 51.8166 11.6652 55.0293 11.5632C58.2421 11.4613 61.6747 11.7331 64.2336 13.6877C66.3021 15.2683 67.514 17.7724 68.0438 20.3331C68.5737 22.8939 68.489 25.5282 68.3989 28.14C68.2974 31.2672 68.0607 34.7061 65.8738 36.9269C63.2472 39.5953 58.9974 39.38 55.2661 39.193C50.5878 38.9834 45.825 39.1534 41.3498 40.5527C36.8745 41.9521 32.6585 44.7168 30.263 48.7504C27.8675 52.7842 27.4448 58.1776 29.9642 62.1603C32.9177 66.8625 39.1009 68.6188 44.6189 67.9673C48.6883 67.4857 52.7748 65.7861 55.328 62.5739C57.8814 59.3616 58.5916 54.4895 56.3144 51.0619C54.0373 47.6344 48.5926 46.5863 45.6504 49.4643C42.9956 52.059 43.2831 56.7102 45.5151 59.6619C47.7471 62.6136 51.4164 64.1942 55.0463 64.9137" stroke="#EA5A68" stroke-width="2.2" stroke-miterlimit="10"/>
<path d="M15.5126 55.9795C19.1592 54.5764 22.2679 52.0449 24.3899 48.7505C25.1459 47.6521 25.6485 46.3978 25.8609 45.0793C25.9648 44.4207 25.9204 43.7469 25.7312 43.1077C25.542 42.4685 25.2127 41.88 24.7675 41.3855C23.4035 40.0315 21.2278 40.0258 19.3284 40.3148C13.0756 41.2881 7.34083 44.3781 3.073 49.0734" stroke="#EA5A68" stroke-width="2.2" stroke-miterlimit="10"/>
<path d="M72.0117 5.26299C69.6018 6.71557 66.8373 7.46578 64.0273 7.42976C61.2174 7.39373 58.4729 6.57292 56.1004 5.05905C53.7718 3.47768 51.9274 1.27587 50.7736 -1.2997C49.6198 -3.87528 49.2022 -6.7229 49.5678 -9.52356" stroke="#EA5A68" stroke-width="2.2" stroke-miterlimit="10"/>
<path d="M66.5106 41.0117C67.3495 38.0285 67.4781 34.8887 66.886 31.8463C66.2938 28.804 64.9978 25.9443 63.1024 23.4987C61.2071 21.0531 58.7656 19.0902 55.9757 17.7686C53.1857 16.4471 50.1255 15.8041 47.0425 15.8916C43.0124 16.0049 39.1515 17.3589 35.3582 18.8036C34.0731 19.3806 32.7054 19.7496 31.3056 19.8971C30.606 19.9574 29.9023 19.8467 29.2545 19.5745C28.6068 19.3022 28.0341 18.8763 27.5856 18.3334C26.5429 16.8774 26.9036 14.7982 27.8167 13.2346C28.7298 11.671 30.0713 10.4699 31.1478 9.01958C32.4619 7.16155 33.2538 4.98203 33.4403 2.71008C33.6267 0.438124 33.2009 -1.84236 32.2075 -3.89172" stroke="#EA5A68" stroke-width="2.2" stroke-miterlimit="10"/>
<path d="M-3.45972 30.4347C-1.00657 28.4974 0.922404 25.9711 2.14965 23.0882C3.3769 20.2052 3.86302 17.0584 3.56326 13.9372C3.23634 10.8553 2.14288 7.90358 1.69197 4.83865C1.24106 1.77371 1.56232 -1.67081 3.65342 -3.93695C5.74454 -6.20309 10.0057 -6.50335 11.6684 -3.89729C13.0662 -1.67081 12.3673 1.72839 14.5091 3.19571C15.9746 4.20414 18.1052 3.56962 19.2944 2.24393C20.4837 0.918246 20.9347 -0.905993 21.2277 -2.66791C21.5208 -4.42984 21.7238 -6.24841 22.5129 -7.83472" stroke="#EA5A68" stroke-width="2.2" stroke-miterlimit="10"/>
</g>
</g>
<g style="mix-blend-mode:overlay">
<path d="M8.45568 8.07883C2.58821 13.3985 3.60838 22.7293 7.98223 28.695C10.8005 32.8023 14.8079 35.9296 18.9 38.649C24.9591 42.66 31.4861 46.0762 36.2996 51.6792C30.8209 43.4022 21.2165 39.4591 13.9737 33.0912C10.4115 29.998 7.29457 26.1569 5.9475 21.5567C4.6004 16.9564 5.24859 11.7216 8.45568 8.05615V8.07883Z" fill="#5A0037"/>
</g>
<g style="mix-blend-mode:soft-light">
<path d="M51.997 6.21471C51.2924 7.59136 54.0599 10.4297 58.197 12.5599C62.3342 14.6901 66.2064 15.3246 66.9052 13.9253C67.6042 12.5259 64.8424 9.71589 60.7053 7.58569C56.5681 5.45556 52.7015 4.8437 51.997 6.21471Z" fill="white"/>
<path d="M13.8555 3.59743C13.151 4.96845 15.9184 7.81248 20.0555 9.93695C24.1927 12.0615 28.0818 12.679 28.7807 11.308C29.4796 9.93695 26.7178 7.09292 22.5807 4.96279C18.4435 2.83262 14.5544 2.22076 13.8555 3.59743Z" fill="white"/>
</g>
</g>
<defs>
<clipPath id="clip0_1_305">
<rect width="112" height="195" fill="white"/>
</clipPath>
</defs>
</svg>
