<svg width="42" height="38" viewBox="0 0 42 38" fill="none" xmlns="http://www.w3.org/2000/svg">
<path d="M29.375 19.8711L21.2479 12.5549C20.2361 11.6517 19.3793 10.6506 18.6776 9.5517C17.9759 8.45276 17.625 7.25598 17.625 5.96134C17.625 4.30541 18.2533 2.89788 19.5099 1.73873C20.7665 0.579575 22.2924 0 24.0875 0C25.1319 0 26.1111 0.203228 27.025 0.609683C27.9389 1.01614 28.7222 1.56561 29.375 2.25808C30.0278 1.56561 30.8111 1.01614 31.725 0.609683C32.6389 0.203228 33.6181 0 34.6625 0C36.4576 0 37.9835 0.579575 39.2401 1.73873C40.4967 2.89788 41.125 4.30541 41.125 5.96134C41.125 7.25598 40.7823 8.45276 40.0969 9.5517C39.4115 10.6506 38.5629 11.6517 37.551 12.5549L29.375 19.8711ZM29.375 14.813L34.7115 9.98073C35.3316 9.40868 35.9028 8.799 36.425 8.15169C36.9472 7.50437 37.2083 6.77425 37.2083 5.96134C37.2083 5.29897 36.9635 4.74198 36.474 4.29036C35.9844 3.83874 35.3806 3.61294 34.6625 3.61294C34.2056 3.61294 33.7731 3.69573 33.3651 3.86132C32.9571 4.02692 32.6063 4.27531 32.3125 4.60649L29.375 7.85813L26.4375 4.60649C26.1438 4.27531 25.7929 4.02692 25.3849 3.86132C24.9769 3.69573 24.5444 3.61294 24.0875 3.61294C23.3694 3.61294 22.7656 3.83874 22.276 4.29036C21.7865 4.74198 21.5417 5.29897 21.5417 5.96134C21.5417 6.77425 21.8028 7.50437 22.325 8.15169C22.8472 8.799 23.4184 9.40868 24.0385 9.98073L29.375 14.813ZM11.75 29.8067L25.3604 33.239L37.0125 29.897C36.8493 29.6261 36.6127 29.3927 36.3026 29.197C35.9925 29.0013 35.6417 28.9035 35.25 28.9035H25.3604C24.4792 28.9035 23.7774 28.8734 23.2552 28.8132C22.733 28.7529 22.1944 28.6325 21.6396 28.4519L17.0865 27.0519L18.1635 23.5292L22.1292 24.7486C22.684 24.8991 23.3368 25.0196 24.0875 25.1099C24.8382 25.2002 25.9479 25.2604 27.4167 25.2905C27.4167 24.9594 27.3106 24.6432 27.0984 24.3422C26.8863 24.0411 26.6333 23.8454 26.3396 23.755L14.8833 19.8711H11.75V29.8067ZM0 36.1293V16.2582H14.8833C15.1118 16.2582 15.3403 16.2808 15.5688 16.326C15.7972 16.3711 16.0094 16.4238 16.2052 16.484L27.7104 20.4131C28.7875 20.7744 29.6606 21.4066 30.3297 22.3099C30.9988 23.2131 31.3333 24.2067 31.3333 25.2905H35.25C36.8819 25.2905 38.2691 25.7873 39.4115 26.7809C40.5538 27.7744 41.125 29.0841 41.125 30.7099V32.5164L25.4583 37.0326L11.75 33.51V36.1293H0ZM3.91667 32.5164H7.83333V19.8711H3.91667V32.5164Z" fill="#3C76E4"/>
</svg>
